<svg fill="none" xmlns="http://www.w3.org/2000/svg" viewBox="0 0 33 33">
  <path fill="#fff" d="M0 0h33v33H0z"/>
  <path d="M23.444 27.885c-1.348 1.306-2.819 1.1-4.235.481-1.499-.632-2.874-.66-4.455 0-1.98.853-3.025.605-4.208-.481-6.71-6.916-5.72-17.449 1.898-17.834 1.856.097 3.148 1.018 4.235 1.1 1.622-.33 3.176-1.278 4.909-1.155 2.076.165 3.643.99 4.674 2.475-4.29 2.572-3.272 8.223.66 9.804-.783 2.063-1.8 4.111-3.492 5.624l.014-.014zM16.54 9.969c-.206-3.066 2.283-5.596 5.143-5.844.398 3.548-3.218 6.188-5.143 5.844z" fill="#002400"/>
</svg>
