<svg fill="none" xmlns="http://www.w3.org/2000/svg" viewBox="0 0 28 28">
  <path fill="#fff" d="M0 0h28v28H0z"/>
  <path d="M24.5 13.755c0 4.842-2.578 10.745-10.348 10.745C8.312 24.539 3.545 19.84 3.5 14 3.545 8.16 8.312 3.461 14.152 3.5c2.415.009 4.758.83 6.65 2.333a.61.61 0 01.221.432.641.641 0 01-.186.455 30.796 30.796 0 00-2.17 2.193c-.2.22-.534.25-.77.07a5.962 5.962 0 00-3.734-1.166 6.242 6.242 0 000 12.483c3.5 0 4.982-1.493 5.752-4.142h-5.332a.583.583 0 01-.583-.583v-3.092c0-.322.261-.583.583-.583h9.334c.268-.002.495.2.525.467.043.461.062.924.058 1.388z" fill="#002400"/>
</svg>
