<svg fill="none" xmlns="http://www.w3.org/2000/svg" viewBox="0 0 12 12">
  <g clip-path="url(#Anb6wKr-ZF1Ha)">
    <path d="M11.625 6a.375.375 0 01-.375.375h-.781A2.254 2.254 0 018.25 8.25H6.375v1.125H7.5a1.5 1.5 0 011.5 1.5.375.375 0 01-.75 0 .75.75 0 00-.75-.75H6.375v.75a.375.375 0 01-.75 0v-.75H4.5a.75.75 0 00-.75.75.375.375 0 01-.75 0 1.5 1.5 0 011.5-1.5h1.125V8.25H3.75a2.254 2.254 0 01-2.219-1.875H.75a.375.375 0 010-.75h1.125A.375.375 0 012.25 6a1.5 1.5 0 001.5 1.5h4.5A1.5 1.5 0 009.75 6a.375.375 0 01.375-.375h1.125a.375.375 0 01.375.375zm-8.442.491a.75.75 0 01-.175-.597l.643-4.5A.754.754 0 014.393.75h3.214a.754.754 0 01.742.644l.643 4.5a.75.75 0 01-.742.856h-4.5a.75.75 0 01-.567-.259zM3.75 6h4.5l-.643-4.5H4.393L3.75 6z" fill="#000"/>
  </g>
  <defs>
    <clipPath id="Anb6wKr-ZF1Ha">
      <path fill="#fff" d="M0 0h12v12H0z"/>
    </clipPath>
  </defs>
</svg>
