<svg fill="none" xmlns="http://www.w3.org/2000/svg" viewBox="0 0 28 28">
  <path fill="#fff" d="M0 0h28v28H0z"/>
  <path d="M19.892 23.66c-1.144 1.108-2.392.933-3.594.408-1.271-.536-2.438-.56-3.78 0-1.68.724-2.566.514-3.57-.408-5.693-5.868-4.853-14.805 1.61-15.132 1.575.082 2.672.864 3.594.934 1.376-.28 2.695-1.085 4.165-.98 1.761.14 3.091.84 3.966 2.1-3.64 2.181-2.776 6.976.56 8.318-.665 1.75-1.528 3.488-2.963 4.772l.012-.012zM14.035 8.458C13.86 5.857 15.972 3.71 18.398 3.5c.339 3.01-2.73 5.25-4.363 4.958z" fill="#002400"/>
</svg>
