<svg fill="none" xmlns="http://www.w3.org/2000/svg" viewBox="0 0 33 33">
  <path fill="#fff" d="M0 0h33v33H0z"/>
  <path d="M28.875 16.211c0 5.707-3.039 12.664-12.196 12.664-6.883.046-12.501-5.493-12.554-12.375.053-6.882 5.671-12.42 12.554-12.375 2.847.01 5.608.98 7.837 2.75.154.126.249.31.262.509 0 .2-.079.394-.22.536A36.323 36.323 0 0022 10.505a.674.674 0 01-.907.082 7.027 7.027 0 00-4.4-1.375 7.356 7.356 0 000 14.713c4.124 0 5.87-1.76 6.778-4.881h-6.284a.688.688 0 01-.687-.688v-3.644c0-.38.308-.687.688-.687h11a.619.619 0 01.618.55c.051.544.074 1.09.069 1.636z" fill="#002400"/>
</svg>
