<svg fill="none" xmlns="http://www.w3.org/2000/svg" viewBox="0 0 20 20">
  <path d="M17.544 8.11c-.87-.473-2.039-.814-3.325-.974v-.574c0-.946-.749-1.804-2.11-2.416-1.237-.558-2.875-.865-4.609-.865s-3.372.307-4.61.865C1.53 4.758.782 5.616.782 6.563v3.125c0 .946.749 1.804 2.11 2.416.82.369 1.813.625 2.89.76v.573c0 .947.749 1.805 2.11 2.417 1.237.558 2.875.865 4.609.865s3.372-.307 4.61-.865c1.358-.612 2.109-1.47 2.109-2.416v-3.126c0-.832-.595-1.614-1.675-2.202zm-.449.824c.765.416 1.186.91 1.186 1.379 0 1.108-2.374 2.343-5.781 2.343-.554 0-1.107-.034-1.657-.104a8.688 8.688 0 001.266-.448c1.359-.612 2.11-1.47 2.11-2.416V8.08c1.125.151 2.133.448 2.876.854zM8.45 11.998a13.86 13.86 0 01-2.173-.02c-.28-.025-.547-.06-.808-.1V9.696a14.076 14.076 0 004.062 0v2.178c-.339.054-.696.095-1.07.122l-.011.001zm4.831-3.725v1.415c0 .745-1.074 1.546-2.812 1.992V9.52a8.987 8.987 0 001.64-.541 5.17 5.17 0 001.172-.706zM7.5 4.219c3.407 0 5.781 1.235 5.781 2.343 0 1.11-2.374 2.344-5.781 2.344-3.407 0-5.781-1.235-5.781-2.344 0-1.108 2.374-2.343 5.781-2.343zM1.719 9.687V8.274c.358.285.752.521 1.172.703a8.985 8.985 0 001.64.54v2.161c-1.738-.443-2.812-1.244-2.812-1.99zm5 3.75v-.49a14.394 14.394 0 001.692-.007c.366.132.74.242 1.12.329v2.162c-1.738-.447-2.812-1.248-2.812-1.993zm3.75 2.188v-2.18a13.917 13.917 0 004.062.002v2.178a13.283 13.283 0 01-4.062 0zm5-.194V13.27a8.987 8.987 0 001.64-.541 5.17 5.17 0 001.172-.703v1.412c0 .745-1.074 1.546-2.812 1.992z" fill="#000"/>
</svg>
