<svg fill="none" xmlns="http://www.w3.org/2000/svg" viewBox="0 0 20 20">
  <path d="M19.125 11.75a.624.624 0 01-.875-.125A4.031 4.031 0 0015 10a.625.625 0 010-1.25 1.875 1.875 0 10-1.815-2.344.625.625 0 11-1.211-.312A3.125 3.125 0 1117.11 9.18c.85.368 1.588.952 2.143 1.694a.626.626 0 01-.128.876zm-4.21 4.812a.625.625 0 11-1.08.625 4.454 4.454 0 00-7.67 0 .625.625 0 11-1.08-.625 5.63 5.63 0 012.636-2.337 3.75 3.75 0 114.559 0 5.63 5.63 0 012.636 2.337zM10 13.75a2.5 2.5 0 100-5 2.5 2.5 0 000 5zM5.625 9.375A.625.625 0 005 8.75a1.875 1.875 0 111.816-2.344.625.625 0 101.21-.312A3.125 3.125 0 102.892 9.18a5.308 5.308 0 00-2.14 1.694.626.626 0 001 .75A4.031 4.031 0 015 10a.625.625 0 00.624-.625z" fill="#000"/>
</svg>
