<svg fill="none" xmlns="http://www.w3.org/2000/svg" viewBox="0 0 10 10">
  <g clip-path="url(#PMejqS0FcuqYa)">
    <path d="M9.375 4.375h-1.12L6.561 2.683A.62.62 0 006.12 2.5H1.73a.625.625 0 00-.52.278L.053 4.514A.315.315 0 000 4.687v1.875a.625.625 0 00.625.625h.664a1.25 1.25 0 002.422 0h2.578a1.25 1.25 0 002.422 0h.664A.625.625 0 0010 6.563V5a.625.625 0 00-.625-.625zM1.73 3.125h4.39l1.25 1.25H.899l.832-1.25zM2.5 7.5a.625.625 0 110-1.25.625.625 0 010 1.25zm5 0a.625.625 0 110-1.25.625.625 0 010 1.25zm1.875-.938h-.664a1.25 1.25 0 00-2.422 0H3.711a1.25 1.25 0 00-2.422 0H.625V5h8.75v1.563z" fill="#999"/>
  </g>
  <defs>
    <clipPath id="PMejqS0FcuqYa">
      <path fill="#fff" d="M0 0h10v10H0z"/>
    </clipPath>
  </defs>
</svg>
