<svg fill="none" xmlns="http://www.w3.org/2000/svg" viewBox="0 0 24 31">
  <path fill-rule="evenodd" clip-rule="evenodd" d="M3.468 3.468A11.84 11.84 0 0111.826 0 11.839 11.839 0 0123.65 11.826c0 10.119-10.75 17.761-11.208 18.08a1.075 1.075 0 01-1.234 0C10.75 29.588 0 21.946 0 11.827a11.84 11.84 0 013.468-8.358zm8.769 13.472C12.513 16.794 19 13.252 19 8.876A3.881 3.881 0 0015.125 5c-1.29 0-2.42.555-3.125 1.493C11.296 5.555 10.166 5 8.875 5A3.879 3.879 0 005 8.876c0 4.376 6.487 7.918 6.763 8.064a.5.5 0 00.474 0z" fill="url(#Oi-G7UL1cuYka)"/>
  <path d="M19 8.876c0 4.376-6.487 7.918-6.763 8.064a.5.5 0 01-.474 0C11.487 16.794 5 13.252 5 8.876A3.88 3.88 0 018.875 5c1.29 0 2.42.555 3.125 1.493C12.704 5.555 13.834 5 15.125 5A3.879 3.879 0 0119 8.876z" fill="#F4F4F4"/>
  <defs>
    <linearGradient id="Oi-G7UL1cuYka" x1="11.826" y1="0" x2="11.826" y2="30.101" gradientUnits="userSpaceOnUse">
      <stop stop-color="#FF4D84"/>
      <stop offset="1" stop-color="#FFB2B2"/>
    </linearGradient>
  </defs>
</svg>
