<svg xmlns="http://www.w3.org/2000/svg" width="24" height="24" viewBox="0 0 24 24" fill="black">
  <path d="M14.94 5.19A4.38 4.38 0 0 0 16 2.5a4.38 4.38 0 0 0-3 1.52 4.08 4.08 0 0 0-1 2.93 3.57 3.57 0 0 0 2.94-1.76zm2.52 7.44a4.51 4.51 0 0 1 2.16-3.81 4.66 4.66 0 0 0-3.66-2c-1.56-.16-3 .91-3.83.91-.83 0-2-.89-3.3-.87a4.92 4.92 0 0 0-4.14 2.53C2.93 12.45 4.24 17 6 19.47c.8 1.21 1.8 2.58 3.12 2.53 1.2-.05 1.68-.82 3.15-.82 1.47 0 1.93.82 3.2.8 1.27-.05 2.16-1.19 3-2.39a9.95 9.95 0 0 0 1.38-2.78 4.4 4.4 0 0 1-2.35-4.18z"/>
</svg> 