<?xml version="1.0" encoding="UTF-8"?>
<svg xmlns="http://www.w3.org/2000/svg" width="24" height="16" viewBox="0 0 24 16">
	<defs>
		<clipPath id="r">
			<rect width="24" height="16" rx="2" ry="2"/>
		</clipPath>
	</defs>
	<g clip-path="url(#r)">
		<rect width="24" height="16" fill="#012169"/>
		<path d="M0 0 L3 0 L24 11 L24 16 L21 16 L0 5 Z" fill="#FFF" opacity="0.95"/>
		<path d="M24 0 L21 0 L0 11 L0 16 L3 16 L24 5 Z" fill="#FFF" opacity="0.95"/>
		<path d="M0 0 L1.8 0 L24 10.2 L24 12 L22.2 12 L0 1.8 Z" fill="#C8102E"/>
		<path d="M24 0 L22.2 0 L0 10.2 L0 12 L1.8 12 L24 1.8 Z" fill="#C8102E"/>
		<rect x="10" y="0" width="4" height="16" fill="#FFF"/>
		<rect x="0" y="6" width="24" height="4" fill="#FFF"/>
		<rect x="11" y="0" width="2" height="16" fill="#C8102E"/>
		<rect x="0" y="7" width="24" height="2" fill="#C8102E"/>
	</g>
</svg> 