<svg width="24" height="24" viewBox="0 0 24 24" fill="none" xmlns="http://www.w3.org/2000/svg">
<g clip-path="url(#clip0_380_18827)">
<g filter="url(#filter0_d_380_18827)">
<path d="M14.2498 7.5C14.8431 7.5 15.4232 7.32405 15.9165 6.99441C16.4099 6.66477 16.7944 6.19623 17.0214 5.64805C17.2485 5.09987 17.3079 4.49667 17.1922 3.91473C17.0764 3.33279 16.7907 2.79824 16.3711 2.37868C15.9516 1.95912 15.417 1.6734 14.8351 1.55765C14.2531 1.44189 13.6499 1.5013 13.1018 1.72836C12.5536 1.95543 12.085 2.33994 11.7554 2.83329C11.4258 3.32664 11.2498 3.90666 11.2498 4.5C11.2498 5.29565 11.5659 6.05871 12.1285 6.62132C12.6911 7.18393 13.4542 7.5 14.2498 7.5ZM14.2498 3C14.5465 3 14.8365 3.08797 15.0832 3.2528C15.3298 3.41762 15.5221 3.65189 15.6356 3.92598C15.7492 4.20007 15.7789 4.50167 15.721 4.79264C15.6631 5.08361 15.5202 5.35088 15.3105 5.56066C15.1007 5.77044 14.8334 5.9133 14.5424 5.97118C14.2515 6.02906 13.9499 5.99935 13.6758 5.88582C13.4017 5.77229 13.1674 5.58003 13.0026 5.33336C12.8378 5.08668 12.7498 4.79667 12.7498 4.5C12.7498 4.10218 12.9078 3.72065 13.1891 3.43934C13.4704 3.15804 13.852 3 14.2498 3ZM20.2498 13.5C20.2498 13.6989 20.1708 13.8897 20.0301 14.0303C19.8895 14.171 19.6987 14.25 19.4998 14.25C16.1895 14.25 14.5357 12.5803 13.2073 11.2388C12.9504 10.9791 12.7048 10.7325 12.4573 10.5038L11.1982 13.3988L14.6857 15.8897C14.7829 15.9591 14.8621 16.0507 14.9167 16.1568C14.9713 16.263 14.9998 16.3806 14.9998 16.5V21.75C14.9998 21.9489 14.9208 22.1397 14.7801 22.2803C14.6395 22.421 14.4487 22.5 14.2498 22.5C14.0509 22.5 13.8601 22.421 13.7195 22.2803C13.5788 22.1397 13.4998 21.9489 13.4998 21.75V16.8863L10.587 14.805L7.43793 22.0491C7.37965 22.1831 7.28347 22.2972 7.16122 22.3773C7.03896 22.4574 6.89597 22.5001 6.7498 22.5C6.64681 22.5004 6.54489 22.479 6.45074 22.4372C6.26842 22.3579 6.12503 22.2095 6.05207 22.0246C5.97912 21.8397 5.98257 21.6333 6.06168 21.4509L11.1317 9.79125C10.2589 9.63656 9.17043 9.90375 7.87855 10.5956C6.84829 11.164 5.88669 11.8488 5.01262 12.6366C4.86673 12.7672 4.67552 12.8357 4.47984 12.8272C4.28417 12.8188 4.09957 12.7341 3.96549 12.5913C3.83142 12.4486 3.75851 12.259 3.76235 12.0632C3.76619 11.8674 3.84648 11.6808 3.98605 11.5434C4.22043 11.3231 9.76949 6.17813 13.2411 9.19219C13.6001 9.50344 13.9423 9.84844 14.2723 10.1831C15.5801 11.5031 16.8148 12.75 19.4998 12.75C19.6987 12.75 19.8895 12.829 20.0301 12.9697C20.1708 13.1103 20.2498 13.3011 20.2498 13.5Z" fill="#002400"/>
</g>
</g>
<defs>
<filter id="filter0_d_380_18827" x="3.76221" y="1.5" width="16.4878" height="23" filterUnits="userSpaceOnUse" color-interpolation-filters="sRGB">
<feFlood flood-opacity="0" result="BackgroundImageFix"/>
<feColorMatrix in="SourceAlpha" type="matrix" values="0 0 0 0 0 0 0 0 0 0 0 0 0 0 0 0 0 0 127 0" result="hardAlpha"/>
<feOffset dy="2"/>
<feComposite in2="hardAlpha" operator="out"/>
<feColorMatrix type="matrix" values="0 0 0 0 0.729412 0 0 0 0 0.996078 0 0 0 0 0.407843 0 0 0 1 0"/>
<feBlend mode="normal" in2="BackgroundImageFix" result="effect1_dropShadow_380_18827"/>
<feBlend mode="normal" in="SourceGraphic" in2="effect1_dropShadow_380_18827" result="shape"/>
</filter>
<clipPath id="clip0_380_18827">
<rect width="24" height="24" fill="white"/>
</clipPath>
</defs>
</svg>
